<svg xmlns="http://www.w3.org/2000/svg" xmlns:xlink="http://www.w3.org/1999/xlink" width="668.556" height="334.542" viewBox="0 0 668.556 334.542"><defs><clipPath id="a"><circle cx="25" cy="25" r="25" transform="translate(601 1033)" fill="#2998f0"/></clipPath></defs><g transform="translate(-499 -9034.5)"><g transform="translate(0 -0.5)"><g transform="translate(499 9067)"><g transform="translate(-601 -1033)"><circle cx="25" cy="25" r="25" transform="translate(601 1033)" fill="#2998f0"/><g clip-path="url(#a)"><g transform="translate(473.167 806.589)"><path d="M152.782,240.211a7.622,7.622,0,1,0,7.622,7.622h0A7.632,7.632,0,0,0,152.782,240.211Z" fill="none" stroke="#fff" stroke-width="2"/><path d="M164.688,265.412a12.7,12.7,0,0,0-9.779-4.883h-4.253a12.7,12.7,0,0,0-9.78,4.883,18.18,18.18,0,0,0-4.043,11.646,1.173,1.173,0,0,0,1.063,1.259h29.772a1.173,1.173,0,0,0,1.063-1.259A18.18,18.18,0,0,0,164.688,265.412Z" fill="none" stroke="#fff" stroke-width="2"/></g></g></g></g><path d="M157.1,541.069a28.606,28.606,0,0,0-46.748-20.677A42.674,42.674,0,0,0,30.98,549.1a32.406,32.406,0,0,0,12.28,62.334H152.252a35.35,35.35,0,0,0,4.849-70.365Z" transform="translate(574.498 8537.5)" fill="none" stroke="#e0e4ec" stroke-width="1"/><text transform="translate(673 9089)" fill="#1ada8c" font-size="12" font-family="Stolzl-Book, Stolzl" style="isolation:isolate"><tspan x="-36.528" y="0">Private IPv4</tspan><tspan x="-26.406" y="14.4">Network</tspan></text><g transform="translate(-33 -6)"><circle cx="25" cy="25" r="25" transform="translate(772 9073)" fill="#2998f0"/><text transform="translate(797 9103)" fill="#fff" font-size="14" font-family="Stolzl-Medium, Stolzl" font-weight="500" style="isolation:isolate"><tspan x="-14.252" y="0">CPE</tspan></text></g><line x1="79.5" transform="translate(554 9092.5)" fill="none" stroke="#1ada8c" stroke-width="1"/><line x1="20.5" transform="translate(713.5 9092.5)" fill="none" stroke="#1ada8c" stroke-width="1"/></g><g transform="translate(209.957 86.5)"><path d="M157.1,541.069a28.606,28.606,0,0,0-46.748-20.677A42.674,42.674,0,0,0,30.98,549.1a32.406,32.406,0,0,0,12.28,62.334H152.252a35.35,35.35,0,0,0,4.849-70.365Z" transform="translate(562.498 8517.5)" fill="none" stroke="#e0e4ec" stroke-width="1"/><path d="M157.1,541.069a28.606,28.606,0,0,0-46.748-20.677A42.674,42.674,0,0,0,30.98,549.1a32.406,32.406,0,0,0,12.28,62.334H152.252a35.35,35.35,0,0,0,4.849-70.365Z" transform="translate(769.498 8517.5)" fill="none" stroke="#e0e4ec" stroke-width="1"/><text transform="translate(661 9079)" fill="#1ada8c" font-size="12" font-family="Stolzl-Book, Stolzl" style="isolation:isolate"><tspan x="-36.528" y="0">Private IPv4</tspan><tspan x="-50.982" y="14.4">Access Network</tspan></text><text transform="translate(868 9079)" fill="#08101f" font-size="12" font-family="Stolzl-Book, Stolzl" style="isolation:isolate"><tspan x="-12.756" y="0">IPv4</tspan><tspan x="-25.32" y="14">Internet</tspan></text><path d="M66.054-58.756H13.043V-14" transform="translate(542 9142.756)" fill="none" stroke="#1ada8c" stroke-width="1"/><path d="M66.054-14H13.043V-58.756" transform="translate(542 9093.256)" fill="none" stroke="#1ada8c" stroke-width="1"/><line x1="20.5" transform="translate(713.5 9084)" fill="none" stroke="#1ada8c" stroke-width="1"/><line x1="20.5" transform="translate(713.5 9079)" fill="none" stroke="#1ada8c" stroke-width="1"/><g transform="translate(735 9056.5)"><g transform="translate(-967 -1033)"><g transform="translate(473.167 806.589)"><circle cx="25" cy="25" r="25" transform="translate(497.833 226.41)" fill="#08101f"/><path d="M510.341,259.056H516.2l11.684-15.111h5.331" fill="none" stroke="#fff" stroke-miterlimit="9.998" stroke-width="2"/><path d="M510.341,243.944H516.2l11.684,15.111h5.331" fill="none" stroke="#fff" stroke-miterlimit="9.998" stroke-width="2"/><path d="M530.267,247.944l3.86-4-3.86-4" fill="none" stroke="#fff" stroke-miterlimit="9.998" stroke-width="2"/><path d="M530.267,263.056l3.86-4-3.86-4" fill="none" stroke="#fff" stroke-miterlimit="9.998" stroke-width="2"/><g transform="translate(497.833 226.411)"><circle cx="25" cy="25" r="25" fill="none"/></g></g></g><text transform="translate(29 78)" fill="#08101f" font-size="14" font-family="Stolzl-Book, Stolzl" style="isolation:isolate"><tspan x="-28.735" y="0">CG-NAT</tspan></text></g></g><g transform="translate(0 153.5)"><g transform="translate(499 9067)"><g transform="translate(-601 -1033)"><circle cx="25" cy="25" r="25" transform="translate(601 1033)" fill="#2998f0"/><g clip-path="url(#a)"><g transform="translate(473.167 806.589)"><path d="M152.782,240.211a7.622,7.622,0,1,0,7.622,7.622h0A7.632,7.632,0,0,0,152.782,240.211Z" fill="none" stroke="#fff" stroke-width="2"/><path d="M164.688,265.412a12.7,12.7,0,0,0-9.779-4.883h-4.253a12.7,12.7,0,0,0-9.78,4.883,18.18,18.18,0,0,0-4.043,11.646,1.173,1.173,0,0,0,1.063,1.259h29.772a1.173,1.173,0,0,0,1.063-1.259A18.18,18.18,0,0,0,164.688,265.412Z" fill="none" stroke="#fff" stroke-width="2"/></g></g></g></g><path d="M157.1,541.069a28.606,28.606,0,0,0-46.748-20.677A42.674,42.674,0,0,0,30.98,549.1a32.406,32.406,0,0,0,12.28,62.334H152.252a35.35,35.35,0,0,0,4.849-70.365Z" transform="translate(574.498 8537.5)" fill="none" stroke="#e0e4ec" stroke-width="1"/><text transform="translate(673 9089)" fill="#1ada8c" font-size="12" font-family="Stolzl-Book, Stolzl" style="isolation:isolate"><tspan x="-36.528" y="0">Private IPv4</tspan><tspan x="-26.406" y="14.4">Network</tspan></text><g transform="translate(-33 -6)"><circle cx="25" cy="25" r="25" transform="translate(772 9073)" fill="#2998f0"/><text transform="translate(797 9103)" fill="#fff" font-size="14" font-family="Stolzl-Medium, Stolzl" font-weight="500" style="isolation:isolate"><tspan x="-14.252" y="0">CPE</tspan></text></g><line x1="79.5" transform="translate(554 9092.5)" fill="none" stroke="#1ada8c" stroke-width="1"/><line x1="20.5" transform="translate(713.5 9092.5)" fill="none" stroke="#1ada8c" stroke-width="1"/></g><g transform="translate(0 -12)"><g transform="translate(-730.999 -106)"><g transform="translate(1233.999 9451)" fill="none"><path d="M180.092,30.436H0v-25H180.223L180.25,0,200,17.935,180.063,36.042Z" stroke="none"/><path d="M 181.0749664306641 33.77241516113281 L 198.5125579833984 17.93464851379395 L 181.2387237548828 2.248614072799683 L 181.22265625 5.441548824310303 L 181.2176361083984 6.436522483825684 L 180.22265625 6.436522483825684 L 1 6.436522483825684 L 1 29.43554878234863 L 180.091796875 29.43554878234863 L 181.0968475341797 29.43554878234863 L 181.091796875 30.44060134887695 L 181.0749664306641 33.77241516113281 M 180.0634765625 36.04199600219727 L 180.091796875 30.43554878234863 L 0 30.43554878234863 L 0 5.436522483825684 L 180.22265625 5.436522483825684 L 180.25 -3.906250185536919e-06 L 200 17.93457412719727 L 180.0634765625 36.04199600219727 Z" stroke="none" fill="#2998f0"/></g><text transform="translate(1325 9474)" fill="#08101f" font-size="14" font-family="Stolzl-Book, Stolzl" style="isolation:isolate"><tspan x="-42.616" y="0">Private IPv4</tspan></text></g><g transform="translate(-676.998 -106)"><g transform="translate(1411.999 9451)" fill="none"><path d="M180.092,30.436H0v-25H180.223L180.25,0,200,17.935,180.063,36.042Z" stroke="none"/><path d="M 181.0749664306641 33.77241516113281 L 198.5125579833984 17.93464851379395 L 181.2387237548828 2.248614072799683 L 181.22265625 5.441548824310303 L 181.2176361083984 6.436522483825684 L 180.22265625 6.436522483825684 L 1 6.436522483825684 L 1 29.43554878234863 L 180.091796875 29.43554878234863 L 181.0968475341797 29.43554878234863 L 181.091796875 30.44060134887695 L 181.0749664306641 33.77241516113281 M 180.0634765625 36.04199600219727 L 180.091796875 30.43554878234863 L 0 30.43554878234863 L 0 5.436522483825684 L 180.22265625 5.436522483825684 L 180.25 -3.906250185536919e-06 L 200 17.93457412719727 L 180.0634765625 36.04199600219727 Z" stroke="none" fill="#2998f0"/></g><text transform="translate(1503 9474)" fill="#08101f" font-size="14" font-family="Stolzl-Book, Stolzl" style="isolation:isolate"><tspan x="-42.616" y="0">Private IPv4</tspan></text></g><g transform="translate(-657.999 -106)"><g transform="translate(1624.999 9451)" fill="#2998f0"><path d="M 180.5692138671875 34.90719223022461 L 180.591796875 30.43807029724121 L 180.5943298339844 29.935546875 L 180.091796875 29.935546875 L 0.5 29.935546875 L 0.5 5.936521053314209 L 180.22265625 5.936521053314209 L 180.7201538085938 5.936521053314209 L 180.72265625 5.439045906066895 L 180.7443542480469 1.124289631843567 L 199.2562866210938 17.93459701538086 L 180.5692138671875 34.90719223022461 Z" stroke="none"/><path d="M 181.0749664306641 33.77241516113281 L 198.5125579833984 17.93464851379395 L 181.2387237548828 2.248614072799683 L 181.22265625 5.441548824310303 L 181.2176361083984 6.436522483825684 L 180.22265625 6.436522483825684 L 1 6.436522483825684 L 1 29.43554878234863 L 180.091796875 29.43554878234863 L 181.0968475341797 29.43554878234863 L 181.091796875 30.44060134887695 L 181.0749664306641 33.77241516113281 M 180.0634765625 36.04199600219727 L 180.091796875 30.43554878234863 L 0 30.43554878234863 L 0 5.436522483825684 L 180.22265625 5.436522483825684 L 180.25 -3.906250185536919e-06 L 200 17.93457412719727 L 180.0634765625 36.04199600219727 Z" stroke="none" fill="#2998f0"/></g><text transform="translate(1716 9474)" fill="#fff" font-size="14" font-family="Stolzl-Medium, Stolzl" font-weight="500" style="isolation:isolate"><tspan x="-39.165" y="0">Public IPv4</tspan></text></g></g></g></svg>